<?xml version="1.0" encoding="UTF-8"?> <svg xmlns="http://www.w3.org/2000/svg" id="mono-icon" viewBox="0 0 46 46"><title>MonoBank-icon</title><path d="M30.8,24.1a.71.71,0,0,0,.68.75,1.35,1.35,0,0,0,.76-.35V23c-.2.11-.66.31-.86.41C31,23.56,30.8,23.75,30.8,24.1Z" transform="translate(-0.1 -0.1)"></path><path d="M26.92,21.49a1.56,1.56,0,0,0-.74.18v2.51a.79.79,0,0,0,.06.33.9.9,0,0,0,.85.54c.79,0,1.3-.69,1.3-1.82A1.55,1.55,0,0,0,26.92,21.49Z" transform="translate(-0.1 -0.1)"></path><path d="M22.26,21.27c-.59,0-1.11.6-1.11,1.7s.52,2.14,1.31,2.14c.59,0,1.08-.45,1.08-1.78C23.53,22.19,23.09,21.27,22.26,21.27Z" transform="translate(-0.1 -0.1)"></path><path d="M12.33,21.27c-.59,0-1.11.6-1.11,1.7s.52,2.14,1.31,2.14c.59,0,1.08-.45,1.08-1.78C13.61,22.19,13.16,21.27,12.33,21.27Z" transform="translate(-0.1 -0.1)"></path><path d="M23.1.1a23,23,0,1,0,23,23A23,23,0,0,0,23.1.1ZM9.8,25.32h-2v-.25c.56-.06.67-.1.67-.79V22.65c0-.69-.24-1.13-.84-1.13A1.74,1.74,0,0,0,6.53,22a2.33,2.33,0,0,1,0,.41v1.9c0,.61.09.67.61.73v.25h-2v-.25c.59-.06.68-.11.68-.75V22.64c0-.72-.25-1.12-.83-1.12a1.76,1.76,0,0,0-1,.51v2.29c0,.63.08.69.54.75v.25h-2v-.25c.63-.06.72-.12.72-.75v-2c0-.62,0-.67-.58-.76v-.22a5.74,5.74,0,0,0,1.33-.4v.79c.2-.14.41-.31.7-.5a1.4,1.4,0,0,1,.78-.26,1.14,1.14,0,0,1,1.06.8,9,9,0,0,1,.79-.55A1.3,1.3,0,0,1,8,20.94c.74,0,1.21.54,1.21,1.49v1.88c0,.65.08.69.62.75Zm2.62.12a2.09,2.09,0,0,1-2.09-2.15,2.2,2.2,0,0,1,2.09-2.34,2.09,2.09,0,0,1,2.07,2.17A2.15,2.15,0,0,1,12.42,25.43Zm7.3-.12h-2v-.25c.56-.06.63-.14.63-.81V22.63c0-.67-.23-1.11-.87-1.11a1.69,1.69,0,0,0-1,.5V24.3c0,.66.06.7.62.76v.25H15v-.25c.65-.07.7-.12.7-.76v-2c0-.62-.06-.65-.57-.75v-.22a5.65,5.65,0,0,0,1.33-.4v.78l.64-.46a1.44,1.44,0,0,1,.79-.29c.75,0,1.23.54,1.23,1.48V24.3c0,.66,0,.7.6.76Zm2.63.12a2.09,2.09,0,0,1-2.09-2.15,2.2,2.2,0,0,1,2.09-2.34,2.09,2.09,0,0,1,2.07,2.17A2.15,2.15,0,0,1,22.35,25.43Zm4.47,0a3.28,3.28,0,0,1-1.4-.35V19.67c0-.6,0-.66-.63-.72v-.22a7.55,7.55,0,0,0,1.38-.34v3l.77-.34a1,1,0,0,1,.39-.1,2,2,0,0,1,1.88,2A2.4,2.4,0,0,1,26.82,25.43Zm6.11,0a.77.77,0,0,1-.45-.19,1,1,0,0,1-.23-.44c-.38.26-.84.62-1.13.62A1.16,1.16,0,0,1,30,24.24a1,1,0,0,1,.77-1,6.78,6.78,0,0,0,1.48-.63v-.18c0-.7-.32-1.1-.8-1.1a.53.53,0,0,0-.43.19,1.42,1.42,0,0,0-.29.64.27.27,0,0,1-.28.22A.47.47,0,0,1,30,22c0-.15.12-.25.31-.39a4.21,4.21,0,0,1,1.43-.68,1.23,1.23,0,0,1,.78.26A1.43,1.43,0,0,1,33,22.39v1.81c0,.44.17.58.33.58a.71.71,0,0,0,.34-.11l.1.25Zm5.77-.12h-2v-.25c.56-.06.63-.14.63-.81V22.63c0-.67-.23-1.11-.87-1.11a1.69,1.69,0,0,0-1,.5V24.3c0,.66.06.7.62.76v.25H34v-.25c.65-.07.7-.12.7-.76v-2c0-.62-.06-.65-.57-.75v-.22a5.65,5.65,0,0,0,1.33-.4v.78l.64-.46a1.44,1.44,0,0,1,.79-.29c.75,0,1.23.54,1.23,1.48V24.3c0,.66,0,.7.6.76Zm3.86,0c-.44-.5-1-1.28-1.56-1.93-.12-.17-.21-.21-.3-.21l-.15,0V24.3c0,.64.09.7.7.76v.25H39.12v-.25c.64-.06.7-.14.7-.76V19.7c0-.64,0-.69-.63-.75v-.22a6.89,6.89,0,0,0,1.37-.34V23a1,1,0,0,0,.6-.34,7.52,7.52,0,0,0,.68-.86c.19-.3.16-.38-.29-.43v-.25L43.49,21v.24a1.85,1.85,0,0,0-1.23.57c-.24.24-.41.44-.82.92.19.29,1.15,1.44,1.48,1.78a1.32,1.32,0,0,0,1,.54v.25Z" transform="translate(-0.1 -0.1)"></path></svg> 